<svg width="545" height="153" viewBox="0 0 545 153" fill="none" xmlns="http://www.w3.org/2000/svg">
<g clip-path="url(#clip0_1_96)">
<path d="M0 24.48C0 10.9601 10.9601 0 24.48 0H520.2C533.72 0 544.68 10.9601 544.68 24.48V128.52C544.68 142.04 533.72 153 520.2 153H24.48C10.9601 153 0 142.04 0 128.52V24.48Z" fill="#FFDD00"/>
<path d="M109.522 50.3178L109.455 50.2783L109.299 50.2308C109.362 50.2836 109.44 50.3142 109.522 50.3178Z" fill="#0D0C22"/>
<path d="M109.549 50.3062C109.54 50.3051 109.532 50.3031 109.524 50.3003C109.523 50.3058 109.523 50.3113 109.524 50.3168C109.533 50.3156 109.541 50.3119 109.549 50.3062Z" fill="#0D0C22"/>
<path d="M109.523 50.3205H109.536V50.3127L109.523 50.3205Z" fill="#0D0C22"/>
<path d="M110.447 57.3006L110.56 57.2361L110.602 57.2123L110.64 57.1715C110.569 57.2025 110.503 57.2462 110.447 57.3006Z" fill="#0D0C22"/>
<path d="M109.715 50.4713L109.604 50.3659L109.529 50.3251C109.57 50.3963 109.636 50.4488 109.715 50.4713Z" fill="#0D0C22"/>
<path d="M81.8801 118.353C81.7916 118.391 81.7142 118.451 81.6548 118.527L81.7246 118.482C81.772 118.439 81.8392 118.387 81.8801 118.353Z" fill="#0D0C22"/>
<path d="M98.0456 115.173C98.0456 115.073 97.9968 115.091 98.0087 115.447C98.0087 115.418 98.0206 115.389 98.0258 115.361C98.0324 115.298 98.0377 115.236 98.0456 115.173Z" fill="#0D0C22"/>
<path d="M96.3761 118.353C96.2877 118.391 96.2103 118.451 96.1509 118.527L96.2207 118.482C96.2681 118.439 96.3353 118.387 96.3761 118.353Z" fill="#0D0C22"/>
<path d="M70.4886 119.11C70.4215 119.052 70.3393 119.013 70.2515 118.999C70.3226 119.034 70.3937 119.068 70.4412 119.094L70.4886 119.11Z" fill="#0D0C22"/>
<path d="M67.9304 116.657C67.92 116.553 67.8881 116.453 67.8369 116.362C67.8732 116.456 67.9035 116.553 67.9278 116.652L67.9304 116.657Z" fill="#0D0C22"/>
<path d="M85.1368 72.7737C81.6195 74.2794 77.628 75.9866 72.4549 75.9866C70.2908 75.9823 68.1373 75.6854 66.0527 75.104L69.6306 111.838C69.7572 113.373 70.4567 114.805 71.59 115.848C72.7233 116.892 74.2076 117.471 75.7482 117.47C75.7482 117.47 80.8212 117.734 82.514 117.734C84.3358 117.734 89.7988 117.47 89.7988 117.47C91.3391 117.47 92.8231 116.891 93.9562 115.848C95.0892 114.804 95.7885 113.373 95.9151 111.838L99.7472 71.2456C98.0347 70.6607 96.3064 70.2721 94.358 70.2721C90.9883 70.2708 88.2733 71.4313 85.1368 72.7737Z" fill="white"/>
<path d="M54.9844 57.1021L55.045 57.1587L55.0845 57.1824C55.0541 57.1522 55.0205 57.1252 54.9844 57.1021Z" fill="#0D0C22"/>
<path d="M116.299 53.7119L115.761 50.9943C115.277 48.5559 114.18 46.2519 111.677 45.3706C110.875 45.0887 109.964 44.9675 109.349 44.384C108.734 43.8004 108.552 42.8941 108.41 42.0536C108.147 40.511 107.899 38.9671 107.629 37.4272C107.396 36.1033 107.211 34.616 106.604 33.4015C105.814 31.7706 104.174 30.8169 102.543 30.1859C101.707 29.8739 100.854 29.61 99.9884 29.3955C95.9139 28.3205 91.63 27.9253 87.4382 27.7001C82.407 27.4225 77.3623 27.5061 72.343 27.9504C68.6071 28.2902 64.6723 28.7013 61.1221 29.9935C59.8245 30.4665 58.4875 31.0342 57.5008 32.0367C56.2902 33.2684 55.895 35.1733 56.7789 36.7092C57.4073 37.8 58.4717 38.5706 59.6006 39.0804C61.0711 39.7373 62.6068 40.2371 64.1822 40.5716C68.5689 41.5412 73.1124 41.9219 77.5939 42.0839C82.561 42.2844 87.5362 42.1219 92.4796 41.5978C93.7021 41.4635 94.9224 41.3023 96.1405 41.1144C97.575 40.8944 98.4958 39.0185 98.073 37.7117C97.5671 36.1494 96.2077 35.5434 94.6703 35.7792C94.4438 35.8148 94.2185 35.8477 93.9919 35.8807L93.8286 35.9044C93.3078 35.9702 92.787 36.0317 92.2662 36.0888C91.1904 36.2047 90.112 36.2996 89.0309 36.3733C86.6097 36.5419 84.1818 36.6197 81.7553 36.6236C79.371 36.6236 76.9853 36.5564 74.6062 36.3997C73.5207 36.3285 72.4379 36.2381 71.3577 36.1283C70.8663 36.0769 70.3763 36.0229 69.8862 35.9623L69.4199 35.903L69.3185 35.8886L68.835 35.8187C67.847 35.6699 66.859 35.4986 65.8816 35.2918C65.783 35.2699 65.6947 35.2151 65.6315 35.1363C65.5683 35.0575 65.5338 34.9594 65.5338 34.8584C65.5338 34.7574 65.5683 34.6594 65.6315 34.5806C65.6947 34.5018 65.783 34.4469 65.8816 34.425H65.9C66.7471 34.2445 67.6007 34.0904 68.4569 33.956C68.7424 33.9113 69.0287 33.8673 69.3158 33.8243H69.3237C69.8599 33.7887 70.3987 33.6926 70.9322 33.6293C75.574 33.1465 80.2434 32.9819 84.9077 33.1367C87.1721 33.2025 89.4353 33.3356 91.6892 33.5648C92.174 33.6149 92.6562 33.6676 93.1383 33.7268C93.3227 33.7492 93.5085 33.7756 93.6942 33.798L94.0683 33.852C95.1591 34.0144 96.2441 34.2116 97.3234 34.4435C98.9227 34.7912 100.976 34.9045 101.688 36.6566C101.914 37.2125 102.017 37.8303 102.142 38.4139L102.302 39.1581C102.306 39.1715 102.309 39.1852 102.311 39.199C102.688 40.9554 103.065 42.7118 103.442 44.4683C103.47 44.598 103.471 44.7321 103.444 44.8621C103.418 44.9921 103.365 45.1153 103.289 45.2239C103.213 45.3326 103.115 45.4244 103.002 45.4936C102.889 45.5628 102.762 45.6079 102.631 45.6262H102.62L102.39 45.6578L102.162 45.6881C101.44 45.7821 100.717 45.8699 99.9936 45.9516C98.5683 46.114 97.1408 46.2546 95.711 46.3731C92.87 46.6094 90.0233 46.7644 87.1708 46.8381C85.7174 46.8768 84.2644 46.8948 82.8118 46.8921C77.0301 46.8876 71.2534 46.5516 65.5101 45.8857C64.8883 45.8119 64.2666 45.7329 63.6448 45.6525C64.1269 45.7145 63.2944 45.6051 63.1258 45.5814C62.7306 45.5261 62.3354 45.4686 61.9402 45.4088C60.6136 45.2099 59.295 44.9649 57.9711 44.7502C56.3705 44.4867 54.8398 44.6185 53.3921 45.4088C52.2037 46.0591 51.2419 47.0564 50.6349 48.2674C50.0105 49.5584 49.8248 50.964 49.5455 52.3511C49.2662 53.7383 48.8315 55.2308 48.9962 56.6548C49.3505 59.7281 51.4991 62.2258 54.5895 62.7843C57.4968 63.3112 60.42 63.7381 63.351 64.1016C74.8648 65.5118 86.4968 65.6805 98.0466 64.6049C98.9872 64.517 99.9265 64.4213 100.864 64.3177C101.157 64.2855 101.454 64.3192 101.732 64.4165C102.01 64.5137 102.263 64.6719 102.472 64.8795C102.681 65.0872 102.842 65.339 102.941 65.6165C103.04 65.894 103.076 66.1902 103.046 66.4834L102.753 69.3261C102.164 75.0705 101.575 80.8145 100.986 86.558C100.371 92.5896 99.7521 98.6208 99.1295 104.651C98.9538 106.35 98.7782 108.048 98.6025 109.746C98.4339 111.417 98.4102 113.142 98.0927 114.794C97.5922 117.391 95.8335 118.987 93.2674 119.57C90.9164 120.105 88.5148 120.386 86.1038 120.408C83.431 120.422 80.7594 120.304 78.0866 120.318C75.2333 120.334 71.7384 120.071 69.5358 117.947C67.6007 116.082 67.3333 113.161 67.0698 110.636C66.7185 107.293 66.3703 103.95 66.0252 100.607L64.0887 82.0212L62.8359 69.9953C62.8149 69.7964 62.7938 69.6001 62.774 69.3999C62.6239 67.9654 61.6082 66.5611 60.0077 66.6335C58.6376 66.6941 57.0806 67.8586 57.2413 69.3999L58.17 78.3155L60.0906 96.7581C60.6378 101.997 61.1836 107.236 61.7281 112.476C61.8335 113.48 61.9323 114.487 62.0429 115.49C62.6449 120.976 66.834 123.932 72.0216 124.764C75.0515 125.252 78.1551 125.352 81.2297 125.402C85.1711 125.465 89.1521 125.617 93.029 124.903C98.7738 123.849 103.084 120.013 103.699 114.062C103.875 112.345 104.051 110.626 104.226 108.908C104.81 103.224 105.393 97.5397 105.976 91.855L107.88 73.2807L108.754 64.7682C108.797 64.3461 108.976 63.9492 109.262 63.6363C109.549 63.3234 109.929 63.111 110.345 63.0307C111.988 62.7105 113.558 62.1639 114.727 60.9137C116.587 58.9232 116.957 56.3281 116.299 53.7119ZM54.5052 55.5483C54.5302 55.5364 54.4841 55.7511 54.4644 55.8513C54.4604 55.6998 54.4683 55.5654 54.5052 55.5483ZM54.6646 56.7813C54.6778 56.7721 54.7173 56.8248 54.7581 56.888C54.6962 56.83 54.6567 56.7866 54.6633 56.7813H54.6646ZM54.8214 56.9881C54.878 57.0843 54.9083 57.1449 54.8214 56.9881V56.9881ZM55.1362 57.2437H55.1441C55.1441 57.2529 55.1586 57.2621 55.1639 57.2713C55.1551 57.2612 55.1454 57.2519 55.1349 57.2437H55.1362ZM110.269 56.8616C109.679 57.4228 108.789 57.6837 107.911 57.8141C98.0572 59.2763 88.06 60.0166 78.0984 59.6899C70.9691 59.4462 63.9148 58.6545 56.8566 57.6573C56.165 57.5598 55.4155 57.4334 54.9399 56.9236C54.0441 55.9619 54.4841 54.0254 54.7173 52.8636C54.9307 51.7992 55.3391 50.3804 56.605 50.2289C58.581 49.9971 60.8758 50.8309 62.8307 51.1273C65.1843 51.4865 67.5467 51.7741 69.9179 51.9902C80.0375 52.9123 90.3271 52.7687 100.402 51.4198C102.238 51.173 104.068 50.8863 105.891 50.5596C107.516 50.2684 109.316 49.7218 110.298 51.404C110.971 52.55 111.06 54.0834 110.956 55.3783C110.924 55.9425 110.678 56.4732 110.267 56.8616H110.269Z" fill="#0D0C22"/>
<path d="M151.102 53.9121C151.329 53.0007 151.736 52.3822 152.322 52.0566C152.941 51.6986 153.559 51.5521 154.178 51.6172C154.829 51.6823 155.398 51.8939 155.887 52.252C156.375 52.61 156.619 53.0332 156.619 53.5215C156.619 53.7168 156.603 53.9121 156.57 54.1074C156.538 54.2702 156.521 54.4329 156.521 54.5957C158.507 53.8796 160.444 53.4076 162.332 53.1797C164.253 52.9193 165.994 53.0007 167.557 53.4238C169.152 53.847 170.535 54.612 171.707 55.7188C172.911 56.8255 173.79 58.3555 174.344 60.3086C174.572 61.0898 174.62 62.0339 174.49 63.1406C174.36 64.2148 174.116 65.2891 173.758 66.3633C173.4 67.4375 172.96 68.4303 172.439 69.3418C171.951 70.2533 171.447 70.9206 170.926 71.3438C172.13 71.7344 173.172 72.3691 174.051 73.248C174.93 74.0944 175.63 75.0872 176.15 76.2266C176.671 77.3659 176.997 78.6029 177.127 79.9375C177.257 81.2721 177.176 82.6068 176.883 83.9414C176.59 85.2435 175.988 86.4642 175.076 87.6035C174.165 88.7103 173.042 89.7031 171.707 90.582C170.372 91.4609 168.891 92.1934 167.264 92.7793C165.636 93.3652 163.976 93.7721 162.283 94C160.623 94.1953 158.979 94.1953 157.352 94C155.724 93.7721 154.259 93.3001 152.957 92.584C152.534 93.2676 152.029 93.7396 151.443 94C150.89 94.293 150.353 94.3906 149.832 94.293C149.311 94.1953 148.855 93.9023 148.465 93.4141C148.074 92.9258 147.83 92.2422 147.732 91.3633C148.025 88.4336 148.318 85.39 148.611 82.2324C148.904 79.0423 149.197 75.8359 149.49 72.6133C149.783 69.3906 150.06 66.2005 150.32 63.043C150.581 59.8854 150.841 56.8418 151.102 53.9121ZM153.396 87.7988C154.308 88.4499 155.415 88.8893 156.717 89.1172C158.019 89.3125 159.354 89.3288 160.721 89.166C162.12 88.9707 163.504 88.6126 164.871 88.0918C166.238 87.571 167.426 86.9036 168.436 86.0898C169.477 85.2435 170.291 84.2669 170.877 83.1602C171.463 82.0208 171.674 80.7676 171.512 79.4004C171.447 78.9121 171.268 78.4401 170.975 77.9844C170.682 77.5286 170.324 77.1055 169.9 76.7148C169.119 76.0312 168.045 75.6081 166.678 75.4453C165.343 75.25 163.911 75.2337 162.381 75.3965C160.883 75.5267 159.419 75.7708 157.986 76.1289C156.554 76.4544 155.366 76.7799 154.422 77.1055L153.396 87.7988ZM155.008 70.709C155.236 70.709 155.708 70.6927 156.424 70.6602C157.173 70.6276 158.035 70.5462 159.012 70.416C160.021 70.2858 161.062 70.0905 162.137 69.8301C163.211 69.5371 164.22 69.1628 165.164 68.707C166.141 68.2188 166.954 67.6328 167.605 66.9492C168.289 66.2331 168.696 65.3704 168.826 64.3613C168.989 63.0918 168.891 62.0501 168.533 61.2363C168.175 60.39 167.622 59.7552 166.873 59.332C166.157 58.8763 165.311 58.5996 164.334 58.502C163.39 58.4043 162.413 58.4206 161.404 58.5508C160.395 58.681 159.402 58.9089 158.426 59.2344C157.482 59.5599 156.668 59.9342 155.984 60.3574L155.008 70.709ZM180.789 67.0469C181.245 66.2331 181.782 65.6797 182.4 65.3867C183.051 65.0612 183.67 64.9798 184.256 65.1426C184.874 65.2728 185.395 65.6309 185.818 66.2168C186.242 66.7702 186.453 67.5189 186.453 68.4629C186.355 68.8535 186.176 69.6348 185.916 70.8066C185.656 71.9785 185.363 73.3294 185.037 74.8594C184.744 76.3893 184.451 78.0169 184.158 79.7422C183.865 81.4349 183.67 82.9974 183.572 84.4297C183.475 85.862 183.491 87.0664 183.621 88.043C183.784 89.0195 184.126 89.5566 184.646 89.6543C185.59 89.8171 186.469 89.459 187.283 88.5801C188.097 87.7012 188.846 86.5456 189.529 85.1133C190.213 83.6484 190.831 82.0208 191.385 80.2305C191.938 78.4401 192.41 76.7311 192.801 75.1035C193.224 73.4434 193.566 71.9785 193.826 70.709C194.087 69.4395 194.282 68.5931 194.412 68.1699C194.64 67.3561 194.933 66.6888 195.291 66.168C195.682 65.6471 196.268 65.224 197.049 64.8984C198.188 64.7682 199.067 65.0124 199.686 65.6309C200.337 66.2168 200.678 67.0794 200.711 68.2188C200.451 69.4883 200.158 70.8392 199.832 72.2715C199.507 73.7038 199.197 75.1361 198.904 76.5684C198.611 77.9681 198.367 79.3353 198.172 80.6699C197.977 81.972 197.846 83.1439 197.781 84.1855C197.749 85.2272 197.798 86.1061 197.928 86.8223C198.09 87.5384 198.4 87.9941 198.855 88.1895C199.897 88.3522 200.825 87.8151 201.639 86.5781C202.485 85.3411 203.38 83.3229 204.324 80.5234C204.617 79.8073 205.057 79.3678 205.643 79.2051C206.229 79.0423 206.766 79.0911 207.254 79.3516C207.775 79.5794 208.165 80.0026 208.426 80.6211C208.719 81.2396 208.719 81.9883 208.426 82.8672C208.23 83.4206 207.986 84.0716 207.693 84.8203C207.4 85.5365 207.042 86.2852 206.619 87.0664C206.229 87.8477 205.789 88.6289 205.301 89.4102C204.812 90.1914 204.292 90.8913 203.738 91.5098C202.924 92.4863 202.013 93.1862 201.004 93.6094C199.995 94 199.002 94.1302 198.025 94C197.049 93.8698 196.121 93.4629 195.242 92.7793C194.363 92.0957 193.647 91.1354 193.094 89.8984C192.508 90.7448 191.906 91.526 191.287 92.2422C190.701 92.9583 190.034 93.5768 189.285 94.0977C188.569 94.6185 187.755 94.9928 186.844 95.2207C185.965 95.4811 184.923 95.5788 183.719 95.5137C182.547 95.4486 181.57 95.123 180.789 94.5371C180.04 93.9512 179.454 93.2025 179.031 92.291C178.608 91.3796 178.315 90.3867 178.152 89.3125C177.99 88.2057 177.908 87.099 177.908 85.9922C177.908 84.8854 177.941 83.8438 178.006 82.8672C178.104 81.8581 178.185 81.0117 178.25 80.3281C178.348 79.4492 178.494 78.4238 178.689 77.252C178.917 76.0801 179.145 74.8919 179.373 73.6875C179.633 72.4505 179.894 71.2624 180.154 70.123C180.415 68.9512 180.626 67.9258 180.789 67.0469ZM206.766 67.0469C207.091 66.2656 207.628 65.7611 208.377 65.5332C209.126 65.3053 209.842 65.3053 210.525 65.5332C211.209 65.7285 211.746 66.1517 212.137 66.8027C212.527 67.4212 212.527 68.2025 212.137 69.1465C211.876 69.9277 211.6 70.888 211.307 72.0273C211.014 73.1667 210.737 74.3711 210.477 75.6406C210.249 76.9102 210.053 78.196 209.891 79.498C209.76 80.7676 209.712 81.9395 209.744 83.0137C209.809 84.0879 209.972 84.9831 210.232 85.6992C210.493 86.4154 210.916 86.8548 211.502 87.0176C212.771 87.0827 213.943 86.8385 215.018 86.2852C216.124 85.6992 217.133 84.9017 218.045 83.8926C218.989 82.8835 219.852 81.7279 220.633 80.4258C221.414 79.1237 222.114 77.7891 222.732 76.4219C223.383 75.0221 223.953 73.6549 224.441 72.3203C224.962 70.9857 225.418 69.7812 225.809 68.707C226.264 67.8932 226.801 67.3398 227.42 67.0469C228.071 66.7214 228.689 66.64 229.275 66.8027C229.894 66.9329 230.415 67.291 230.838 67.877C231.261 68.4303 231.473 69.1628 231.473 70.0742C230.887 71.7995 230.431 73.5573 230.105 75.3477C229.812 77.138 229.617 78.9121 229.52 80.6699C229.454 81.9069 229.422 83.1276 229.422 84.332C229.454 85.5365 229.536 86.6595 229.666 87.7012C230.024 87.5059 230.512 87.1966 231.131 86.7734C231.782 86.3503 232.449 85.8457 233.133 85.2598C233.849 84.6738 234.533 84.0228 235.184 83.3066C235.835 82.5905 236.372 81.8418 236.795 81.0605C237.446 80.2793 238.081 79.9212 238.699 79.9863C239.35 80.0514 239.887 80.3281 240.311 80.8164C240.766 81.3047 241.043 81.8906 241.141 82.5742C241.271 83.2578 241.157 83.8438 240.799 84.332C239.627 86.3177 238.146 88.2057 236.355 89.9961C234.565 91.7865 232.27 93.2676 229.471 94.4395C229.568 95.8392 229.568 97.4342 229.471 99.2246C229.373 101.015 229.129 102.838 228.738 104.693C228.38 106.549 227.876 108.323 227.225 110.016C226.606 111.741 225.792 113.206 224.783 114.41C223.807 115.615 222.651 116.477 221.316 116.998C219.982 117.519 218.436 117.503 216.678 116.949C214.985 116.428 213.764 115.566 213.016 114.361C212.267 113.157 211.876 111.741 211.844 110.113C211.844 108.518 212.153 106.793 212.771 104.938C213.39 103.082 214.236 101.243 215.311 99.4199C216.417 97.6296 217.687 95.9368 219.119 94.3418C220.584 92.7467 222.13 91.3796 223.758 90.2402C223.79 89.459 223.807 88.7428 223.807 88.0918C223.807 87.4082 223.823 86.6921 223.855 85.9434C223.042 86.985 222.081 87.9941 220.975 88.9707C219.9 89.9147 218.729 90.7285 217.459 91.4121C216.189 92.0957 214.855 92.5677 213.455 92.8281C212.055 93.0885 210.623 93.0234 209.158 92.6328C207.791 92.2422 206.701 91.526 205.887 90.4844C205.105 89.4427 204.536 88.2057 204.178 86.7734C203.82 85.3086 203.657 83.7135 203.689 81.9883C203.722 80.2305 203.868 78.4727 204.129 76.7148C204.422 74.9245 204.796 73.1992 205.252 71.5391C205.708 69.8789 206.212 68.3815 206.766 67.0469ZM223.855 97.7598C223.107 98.3783 222.391 99.1432 221.707 100.055C221.023 100.999 220.405 101.975 219.852 102.984C219.331 103.993 218.875 105.003 218.484 106.012C218.126 107.053 217.882 107.981 217.752 108.795C217.622 109.609 217.622 110.292 217.752 110.846C217.882 111.399 218.191 111.708 218.68 111.773C219.298 111.871 219.868 111.611 220.389 110.992C220.942 110.406 221.43 109.625 221.854 108.648C222.309 107.672 222.7 106.581 223.025 105.377C223.351 104.205 223.595 103.082 223.758 102.008C223.953 100.934 224.051 100.006 224.051 99.2246C224.083 98.4434 224.018 97.9551 223.855 97.7598ZM249.979 92.7305C250.434 89.7682 250.76 87.1641 250.955 84.918C251.183 82.6719 251.313 80.7188 251.346 79.0586C251.378 77.3659 251.346 75.9499 251.248 74.8105C251.183 73.6387 251.085 72.6458 250.955 71.832C250.825 71.0182 250.678 70.3672 250.516 69.8789C250.385 69.3581 250.304 68.9186 250.271 68.5605C250.206 68.0723 250.239 67.6491 250.369 67.291C250.532 66.9004 250.743 66.5749 251.004 66.3145C251.297 66.054 251.622 65.8587 251.98 65.7285C252.339 65.5658 252.697 65.4844 253.055 65.4844C253.771 65.4844 254.324 65.5983 254.715 65.8262C255.105 66.054 255.398 66.3958 255.594 66.8516C255.822 67.2747 255.968 67.8118 256.033 68.4629C256.131 69.0814 256.212 69.8138 256.277 70.6602C256.701 69.944 257.189 69.2279 257.742 68.5117C258.296 67.763 258.914 67.0957 259.598 66.5098C260.281 65.9238 261.03 65.4518 261.844 65.0938C262.69 64.7031 263.602 64.5078 264.578 64.5078C265.587 64.5078 266.548 64.7031 267.459 65.0938C268.37 65.4518 269.184 65.9727 269.9 66.6562C270.649 67.3073 271.268 68.0885 271.756 69C272.277 69.8789 272.667 70.8392 272.928 71.8809C273.644 70.5137 274.425 69.2116 275.271 67.9746C276.15 66.7376 277.322 65.7773 278.787 65.0938C280.252 64.4102 281.619 64.2148 282.889 64.5078C284.158 64.8008 285.265 65.403 286.209 66.3145C287.186 67.1934 287.951 68.3164 288.504 69.6836C289.057 71.0182 289.334 72.418 289.334 73.8828C289.334 75.5755 289.22 77.3496 288.992 79.2051C288.797 81.0605 288.618 82.7858 288.455 84.3809C288.292 85.9759 288.227 87.3105 288.26 88.3848C288.325 89.459 288.618 90.0612 289.139 90.1914C290.018 90.4193 290.864 90.1589 291.678 89.4102C292.492 88.6615 293.224 87.7337 293.875 86.627C294.559 85.5202 295.145 84.3971 295.633 83.2578C296.154 82.0859 296.561 81.1745 296.854 80.5234C297.081 79.9701 297.439 79.6283 297.928 79.498C298.449 79.3678 298.937 79.4004 299.393 79.5957C299.881 79.791 300.271 80.1491 300.564 80.6699C300.89 81.1582 301.004 81.7604 300.906 82.4766C300.516 84.0716 299.979 85.6667 299.295 87.2617C298.611 88.8568 297.749 90.3053 296.707 91.6074C295.698 92.877 294.477 93.9023 293.045 94.6836C291.613 95.4974 289.969 95.9043 288.113 95.9043C286.876 95.9043 285.851 95.5625 285.037 94.8789C284.256 94.2279 283.637 93.4303 283.182 92.4863C282.726 91.5098 282.417 90.4844 282.254 89.4102C282.091 88.3359 282.01 87.3919 282.01 86.5781C282.01 85.4062 282.075 84.2832 282.205 83.209C282.368 82.1348 282.547 81.0931 282.742 80.084C282.938 79.0423 283.1 78.0495 283.23 77.1055C283.393 76.1289 283.475 75.1849 283.475 74.2734C283.475 73.0365 283.328 72.0599 283.035 71.3438C282.775 70.6276 282.384 70.2695 281.863 70.2695C280.854 70.2695 279.894 70.8717 278.982 72.0762C278.104 73.248 277.29 74.778 276.541 76.666C275.825 78.5215 275.174 80.6374 274.588 83.0137C274.035 85.3574 273.595 87.7012 273.27 90.0449C273.172 90.8587 272.814 91.4447 272.195 91.8027C271.577 92.1283 270.91 92.2585 270.193 92.1934C269.51 92.0957 268.875 91.8353 268.289 91.4121C267.736 90.9564 267.459 90.3542 267.459 89.6055C267.524 89.1823 267.622 88.4173 267.752 87.3105C267.915 86.1712 268.045 84.8854 268.143 83.4531C268.273 82.0208 268.338 80.5397 268.338 79.0098C268.37 77.4473 268.273 76.015 268.045 74.7129C267.85 73.4108 267.492 72.3529 266.971 71.5391C266.482 70.6927 265.783 70.2695 264.871 70.2695C264.122 70.2695 263.406 70.6276 262.723 71.3438C262.039 72.0273 261.372 72.9551 260.721 74.127C260.102 75.2988 259.533 76.6497 259.012 78.1797C258.491 79.7096 258.019 81.321 257.596 83.0137C257.205 84.7064 256.863 86.4154 256.57 88.1406C256.31 89.8659 256.131 91.4935 256.033 93.0234C255.936 93.8372 255.545 94.4069 254.861 94.7324C254.21 95.0579 253.51 95.1882 252.762 95.123C252.013 95.0579 251.346 94.8138 250.76 94.3906C250.174 93.9674 249.913 93.4141 249.979 92.7305ZM312.869 71.002C312.804 72.6296 312.511 74.2734 311.99 75.9336C311.469 77.5612 310.704 79.0423 309.695 80.377C308.686 81.679 307.449 82.737 305.984 83.5508C304.552 84.332 302.908 84.6576 301.053 84.5273C301.085 85.5365 301.199 86.513 301.395 87.457C301.59 88.401 301.899 89.2148 302.322 89.8984C302.778 90.5495 303.38 91.0215 304.129 91.3145C304.878 91.5749 305.822 91.526 306.961 91.168C308.1 90.8424 309.191 90.3053 310.232 89.5566C311.274 88.8079 312.202 87.9453 313.016 86.9688C313.862 85.9922 314.562 84.9668 315.115 83.8926C315.701 82.7858 316.124 81.7116 316.385 80.6699C316.515 80.1165 316.824 79.7747 317.312 79.6445C317.801 79.5143 318.305 79.5306 318.826 79.6934C319.38 79.8561 319.835 80.1491 320.193 80.5723C320.584 80.9629 320.714 81.4186 320.584 81.9395C319.868 83.8275 319.152 85.5039 318.436 86.9688C317.752 88.4336 316.987 89.7357 316.141 90.875C315.294 91.9818 314.334 92.9258 313.26 93.707C312.218 94.4883 310.981 95.1393 309.549 95.6602C307.628 96.3438 305.854 96.6367 304.227 96.5391C302.599 96.474 301.183 96.0508 299.979 95.2695C298.774 94.4883 297.814 93.3815 297.098 91.9492C296.414 90.5169 296.023 88.7754 295.926 86.7246C295.861 85.748 295.828 84.5762 295.828 83.209C295.861 81.8092 295.958 80.3607 296.121 78.8633C296.284 77.3333 296.544 75.7871 296.902 74.2246C297.26 72.6621 297.749 71.2135 298.367 69.8789C298.986 68.5117 299.751 67.3236 300.662 66.3145C301.606 65.2728 302.745 64.5241 304.08 64.0684C305.187 63.6777 306.277 63.5312 307.352 63.6289C308.426 63.7266 309.37 64.0684 310.184 64.6543C311.03 65.2402 311.697 66.0703 312.186 67.1445C312.674 68.1862 312.902 69.472 312.869 71.002ZM306.717 69.7324C306.261 69.4395 305.805 69.4232 305.35 69.6836C304.926 69.9115 304.52 70.3184 304.129 70.9043C303.738 71.4577 303.396 72.125 303.104 72.9062C302.811 73.6875 302.566 74.5013 302.371 75.3477C302.176 76.1615 302.029 76.9427 301.932 77.6914C301.834 78.4401 301.818 79.0423 301.883 79.498C303.38 79.2051 304.568 78.5866 305.447 77.6426C306.326 76.6986 306.928 75.6895 307.254 74.6152C307.612 73.541 307.726 72.5319 307.596 71.5879C307.498 70.6439 307.205 70.0254 306.717 69.7324ZM337.283 93.5605C335.298 93.5605 333.719 93.0072 332.547 91.9004C331.408 90.7936 330.61 89.3776 330.154 87.6523C329.699 85.8945 329.552 83.9577 329.715 81.8418C329.91 79.7259 330.366 77.6589 331.082 75.6406C331.798 73.5898 332.726 71.7018 333.865 69.9766C335.037 68.2513 336.372 66.9329 337.869 66.0215C339.367 65.11 340.994 64.7194 342.752 64.8496C344.542 64.9798 346.398 65.875 348.318 67.5352C348.514 66.9492 348.937 66.6074 349.588 66.5098C350.239 66.3796 350.874 66.4447 351.492 66.7051C352.143 66.9329 352.68 67.3398 353.104 67.9258C353.527 68.4792 353.608 69.1628 353.348 69.9766C353.12 70.888 352.827 72.0111 352.469 73.3457C352.111 74.6478 351.753 76.015 351.395 77.4473C351.069 78.8796 350.776 80.3281 350.516 81.793C350.288 83.2253 350.174 84.5273 350.174 85.6992C350.206 86.8385 350.385 87.7988 350.711 88.5801C351.036 89.3288 351.606 89.7357 352.42 89.8008C353.396 89.8659 354.308 89.5404 355.154 88.8242C356.033 88.0755 356.798 87.1478 357.449 86.041C358.133 84.9342 358.702 83.7624 359.158 82.5254C359.614 81.2884 359.907 80.2142 360.037 79.3027C360.265 78.4564 360.639 77.9681 361.16 77.8379C361.714 77.6751 362.234 77.724 362.723 77.9844C363.243 78.2448 363.65 78.6517 363.943 79.2051C364.269 79.7259 364.318 80.2305 364.09 80.7188C363.862 82.0208 363.406 83.5182 362.723 85.2109C362.039 86.8711 361.16 88.4661 360.086 89.9961C359.044 91.4935 357.856 92.763 356.521 93.8047C355.187 94.8464 353.755 95.3672 352.225 95.3672C351.541 95.3672 350.825 95.237 350.076 94.9766C349.36 94.7487 348.66 94.3743 347.977 93.8535C347.326 93.3327 346.74 92.6654 346.219 91.8516C345.698 91.0378 345.324 90.0449 345.096 88.873C344.803 89.2311 344.396 89.6868 343.875 90.2402C343.354 90.7611 342.752 91.2656 342.068 91.7539C341.385 92.2422 340.636 92.6654 339.822 93.0234C339.008 93.3815 338.162 93.5605 337.283 93.5605ZM337.234 87.457C338.276 87.5547 339.188 87.3105 339.969 86.7246C340.783 86.1387 341.499 85.3574 342.117 84.3809C342.736 83.3717 343.257 82.2487 343.68 81.0117C344.103 79.7747 344.445 78.5866 344.705 77.4473C344.998 76.2754 345.226 75.2174 345.389 74.2734C345.551 73.2969 345.665 72.597 345.73 72.1738C344.689 71.2949 343.712 70.8392 342.801 70.8066C341.889 70.7741 341.043 71.0345 340.262 71.5879C339.513 72.1087 338.846 72.8574 338.26 73.834C337.674 74.8105 337.169 75.8848 336.746 77.0566C336.355 78.196 336.062 79.3678 335.867 80.5723C335.672 81.7767 335.574 82.8835 335.574 83.8926C335.607 84.9017 335.753 85.7318 336.014 86.3828C336.307 87.0339 336.714 87.3919 337.234 87.457ZM389.383 75.2988C389.318 75.2988 389.269 75.2826 389.236 75.25C388.878 76.0312 388.406 76.6009 387.82 76.959C387.267 77.3171 386.697 77.4635 386.111 77.3984C385.525 77.3008 384.988 77.0078 384.5 76.5195C384.044 76.0312 383.735 75.3477 383.572 74.4688C383.572 74.0456 383.621 73.5247 383.719 72.9062C383.816 72.2552 383.882 71.6367 383.914 71.0508C383.979 70.4323 383.963 69.9115 383.865 69.4883C383.768 69.0326 383.507 68.7721 383.084 68.707C382.335 69.1302 381.684 69.8464 381.131 70.8555C380.577 71.832 380.122 72.9551 379.764 74.2246C379.406 75.4616 379.145 76.7799 378.982 78.1797C378.852 79.5794 378.803 80.9303 378.836 82.2324C378.901 83.502 379.064 84.6413 379.324 85.6504C379.617 86.6595 380.024 87.3919 380.545 87.8477C381.196 88.4661 381.912 88.8405 382.693 88.9707C383.475 89.1009 384.288 89.0846 385.135 88.9219C385.851 88.7917 386.665 88.5475 387.576 88.1895C388.488 87.8314 389.399 87.3105 390.311 86.627C391.255 85.9434 392.15 85.0645 392.996 83.9902C393.875 82.916 394.64 81.5651 395.291 79.9375C395.519 79.4492 395.91 79.1562 396.463 79.0586C397.049 78.9609 397.618 79.026 398.172 79.2539C398.725 79.4492 399.165 79.791 399.49 80.2793C399.816 80.7676 399.848 81.3698 399.588 82.0859C398.937 83.6159 398.123 84.9831 397.146 86.1875C396.202 87.3919 395.177 88.4499 394.07 89.3613C392.964 90.2728 391.808 91.054 390.604 91.7051C389.399 92.3561 388.227 92.8932 387.088 93.3164C386.209 93.6419 385.281 93.8861 384.305 94.0488C383.328 94.2441 382.335 94.293 381.326 94.1953C380.35 94.0977 379.406 93.8535 378.494 93.4629C377.583 93.0397 376.769 92.3887 376.053 91.5098C375.206 90.5007 374.539 89.2474 374.051 87.75C373.595 86.2526 373.302 84.6576 373.172 82.9648C373.042 81.2721 373.074 79.5306 373.27 77.7402C373.497 75.9499 373.855 74.2572 374.344 72.6621C374.865 71.0345 375.516 69.5697 376.297 68.2676C377.111 66.9329 378.038 65.8913 379.08 65.1426C380.773 64.0033 382.417 63.4824 384.012 63.5801C385.639 63.6452 386.925 64.3613 387.869 65.7285C388.618 65.8262 389.22 66.2005 389.676 66.8516C390.132 67.5026 390.262 68.2513 390.066 69.0977L389.383 75.2988ZM410.33 64.9473C411.827 64.459 413.13 64.3613 414.236 64.6543C415.376 64.9473 416.32 65.5169 417.068 66.3633C417.817 67.2096 418.403 68.2676 418.826 69.5371C419.282 70.7741 419.591 72.0924 419.754 73.4922C419.819 74.1432 419.852 74.8594 419.852 75.6406C419.884 76.4219 419.868 77.2031 419.803 77.9844C419.77 78.7656 419.705 79.5143 419.607 80.2305C419.542 80.9466 419.445 81.5977 419.314 82.1836C420.096 82.151 420.796 82.0534 421.414 81.8906C422.033 81.6953 422.602 81.4837 423.123 81.2559C423.644 80.9954 424.132 80.7188 424.588 80.4258C425.076 80.1328 425.564 79.8561 426.053 79.5957C426.671 79.2702 427.176 79.2376 427.566 79.498C427.99 79.7259 428.266 80.084 428.396 80.5723C428.559 81.0605 428.592 81.5977 428.494 82.1836C428.429 82.737 428.217 83.1764 427.859 83.502C426.297 84.9342 424.588 85.9759 422.732 86.627C420.877 87.2454 418.989 87.5547 417.068 87.5547C415.799 89.8008 414.171 91.5098 412.186 92.6816C410.2 93.821 408.035 94.4069 405.691 94.4395C403.51 94.472 401.671 94.0326 400.174 93.1211C398.676 92.2096 397.488 91.0215 396.609 89.5566C395.73 88.0918 395.145 86.4316 394.852 84.5762C394.591 82.6882 394.591 80.8001 394.852 78.9121C395.145 76.9915 395.698 75.1361 396.512 73.3457C397.358 71.5228 398.432 69.944 399.734 68.6094C401.036 67.2747 402.566 66.2656 404.324 65.582C406.115 64.8659 408.117 64.6543 410.33 64.9473ZM406.814 70.5625C405.773 70.7904 404.812 71.3763 403.934 72.3203C403.055 73.2318 402.306 74.3385 401.688 75.6406C401.069 76.9102 400.63 78.2936 400.369 79.791C400.109 81.2884 400.076 82.7044 400.271 84.0391C400.499 85.3411 401.004 86.4805 401.785 87.457C402.566 88.4336 403.689 89.0684 405.154 89.3613C405.675 89.459 406.261 89.4102 406.912 89.2148C407.563 89.0195 408.198 88.7266 408.816 88.3359C409.435 87.9453 409.988 87.4896 410.477 86.9688C410.997 86.4154 411.388 85.862 411.648 85.3086C410.737 84.7552 409.956 84.0879 409.305 83.3066C408.686 82.5254 408.149 81.6628 407.693 80.7188C406.977 79.1562 406.554 77.4961 406.424 75.7383C406.294 73.9479 406.424 72.2227 406.814 70.5625ZM412.869 70.8066C411.958 71.36 411.437 72.1413 411.307 73.1504C411.209 74.127 411.307 75.1361 411.6 76.1777C411.893 77.1868 412.299 78.0983 412.82 78.9121C413.341 79.7259 413.781 80.2305 414.139 80.4258C414.334 80.263 414.48 79.8887 414.578 79.3027C414.708 78.6842 414.79 77.9844 414.822 77.2031C414.855 76.4219 414.839 75.6081 414.773 74.7617C414.708 73.9154 414.594 73.1667 414.432 72.5156C414.269 71.8646 414.057 71.3763 413.797 71.0508C413.536 70.6927 413.227 70.6113 412.869 70.8066ZM425.906 53.5703C426.362 52.7565 426.932 52.2357 427.615 52.0078C428.331 51.7799 428.999 51.7637 429.617 51.959C430.236 52.1543 430.74 52.5124 431.131 53.0332C431.521 53.554 431.619 54.1562 431.424 54.8398L428.396 87.2617C429.796 87.1641 431.163 86.8874 432.498 86.4316C433.833 85.9434 435.118 85.3411 436.355 84.625C437.592 83.8763 438.764 83.0462 439.871 82.1348C441.01 81.2233 442.068 80.2956 443.045 79.3516C443.566 79.0911 444.021 79.1888 444.412 79.6445C444.835 80.1003 445.128 80.6862 445.291 81.4023C445.486 82.0859 445.519 82.8021 445.389 83.5508C445.291 84.2995 444.982 84.8366 444.461 85.1621C443.777 85.6829 443.012 86.2689 442.166 86.9199C441.32 87.5384 440.457 88.1406 439.578 88.7266C438.732 89.2799 437.902 89.7845 437.088 90.2402C436.274 90.696 435.574 91.0052 434.988 91.168C435.965 92.2422 436.73 93.6094 437.283 95.2695C437.837 96.9297 438.178 98.6875 438.309 100.543C438.439 102.431 438.341 104.303 438.016 106.158C437.723 108.014 437.202 109.641 436.453 111.041C435.704 112.473 434.728 113.596 433.523 114.41C432.319 115.224 430.887 115.517 429.227 115.289C427.664 115.094 426.395 114.492 425.418 113.482C424.474 112.473 423.742 111.236 423.221 109.771C422.7 108.339 422.358 106.728 422.195 104.938C422.033 103.18 421.967 101.422 422 99.6641C422.033 97.9388 422.114 96.2786 422.244 94.6836C422.342 93.1211 422.407 91.8027 422.439 90.7285C422.439 90.11 422.505 88.9382 422.635 87.2129C422.765 85.4876 422.911 83.4531 423.074 81.1094C423.27 78.7656 423.481 76.2428 423.709 73.541C423.969 70.8392 424.214 68.2188 424.441 65.6797C424.702 63.1406 424.946 60.7969 425.174 58.6484C425.434 56.5 425.678 54.8073 425.906 53.5703ZM429.471 108.941C430.35 108.909 431.082 108.502 431.668 107.721C432.254 106.972 432.677 106.044 432.938 104.938C433.23 103.831 433.344 102.61 433.279 101.275C433.214 99.9733 432.986 98.7526 432.596 97.6133C432.205 96.474 431.635 95.4811 430.887 94.6348C430.171 93.821 429.259 93.349 428.152 93.2188C428.087 93.7721 427.99 94.5534 427.859 95.5625C427.762 96.5716 427.664 97.6621 427.566 98.834C427.501 100.006 427.452 101.194 427.42 102.398C427.42 103.603 427.469 104.693 427.566 105.67C427.697 106.646 427.908 107.444 428.201 108.062C428.494 108.681 428.917 108.974 429.471 108.941ZM443.582 53.5703C444.038 52.7565 444.607 52.2357 445.291 52.0078C446.007 51.7799 446.674 51.7637 447.293 51.959C447.911 52.1543 448.416 52.5124 448.807 53.0332C449.197 53.554 449.295 54.1562 449.1 54.8398L446.072 87.2617C447.472 87.1641 448.839 86.8874 450.174 86.4316C451.508 85.9434 452.794 85.3411 454.031 84.625C455.268 83.8763 456.44 83.0462 457.547 82.1348C458.686 81.2233 459.744 80.2956 460.721 79.3516C461.242 79.0911 461.697 79.1888 462.088 79.6445C462.511 80.1003 462.804 80.6862 462.967 81.4023C463.162 82.0859 463.195 82.8021 463.064 83.5508C462.967 84.2995 462.658 84.8366 462.137 85.1621C461.453 85.6829 460.688 86.2689 459.842 86.9199C458.995 87.5384 458.133 88.1406 457.254 88.7266C456.408 89.2799 455.577 89.7845 454.764 90.2402C453.95 90.696 453.25 91.0052 452.664 91.168C453.641 92.2422 454.406 93.6094 454.959 95.2695C455.512 96.9297 455.854 98.6875 455.984 100.543C456.115 102.431 456.017 104.303 455.691 106.158C455.398 108.014 454.878 109.641 454.129 111.041C453.38 112.473 452.404 113.596 451.199 114.41C449.995 115.224 448.562 115.517 446.902 115.289C445.34 115.094 444.07 114.492 443.094 113.482C442.15 112.473 441.417 111.236 440.896 109.771C440.376 108.339 440.034 106.728 439.871 104.938C439.708 103.18 439.643 101.422 439.676 99.6641C439.708 97.9388 439.79 96.2786 439.92 94.6836C440.018 93.1211 440.083 91.8027 440.115 90.7285C440.115 90.11 440.18 88.9382 440.311 87.2129C440.441 85.4876 440.587 83.4531 440.75 81.1094C440.945 78.7656 441.157 76.2428 441.385 73.541C441.645 70.8392 441.889 68.2188 442.117 65.6797C442.378 63.1406 442.622 60.7969 442.85 58.6484C443.11 56.5 443.354 54.8073 443.582 53.5703ZM447.146 108.941C448.025 108.909 448.758 108.502 449.344 107.721C449.93 106.972 450.353 106.044 450.613 104.938C450.906 103.831 451.02 102.61 450.955 101.275C450.89 99.9733 450.662 98.7526 450.271 97.6133C449.881 96.474 449.311 95.4811 448.562 94.6348C447.846 93.821 446.935 93.349 445.828 93.2188C445.763 93.7721 445.665 94.5534 445.535 95.5625C445.438 96.5716 445.34 97.6621 445.242 98.834C445.177 100.006 445.128 101.194 445.096 102.398C445.096 103.603 445.145 104.693 445.242 105.67C445.372 106.646 445.584 107.444 445.877 108.062C446.17 108.681 446.593 108.974 447.146 108.941ZM475.467 71.002C475.402 72.6296 475.109 74.2734 474.588 75.9336C474.067 77.5612 473.302 79.0423 472.293 80.377C471.284 81.679 470.047 82.737 468.582 83.5508C467.15 84.332 465.506 84.6576 463.65 84.5273C463.683 85.5365 463.797 86.513 463.992 87.457C464.188 88.401 464.497 89.2148 464.92 89.8984C465.376 90.5495 465.978 91.0215 466.727 91.3145C467.475 91.5749 468.419 91.526 469.559 91.168C470.698 90.8424 471.788 90.3053 472.83 89.5566C473.872 88.8079 474.799 87.9453 475.613 86.9688C476.46 85.9922 477.16 84.9668 477.713 83.8926C478.299 82.7858 478.722 81.7116 478.982 80.6699C479.113 80.1165 479.422 79.7747 479.91 79.6445C480.398 79.5143 480.903 79.5306 481.424 79.6934C481.977 79.8561 482.433 80.1491 482.791 80.5723C483.182 80.9629 483.312 81.4186 483.182 81.9395C482.465 83.8275 481.749 85.5039 481.033 86.9688C480.35 88.4336 479.585 89.7357 478.738 90.875C477.892 91.9818 476.932 92.9258 475.857 93.707C474.816 94.4883 473.579 95.1393 472.146 95.6602C470.226 96.3438 468.452 96.6367 466.824 96.5391C465.197 96.474 463.781 96.0508 462.576 95.2695C461.372 94.4883 460.411 93.3815 459.695 91.9492C459.012 90.5169 458.621 88.7754 458.523 86.7246C458.458 85.748 458.426 84.5762 458.426 83.209C458.458 81.8092 458.556 80.3607 458.719 78.8633C458.882 77.3333 459.142 75.7871 459.5 74.2246C459.858 72.6621 460.346 71.2135 460.965 69.8789C461.583 68.5117 462.348 67.3236 463.26 66.3145C464.204 65.2728 465.343 64.5241 466.678 64.0684C467.785 63.6777 468.875 63.5312 469.949 63.6289C471.023 63.7266 471.967 64.0684 472.781 64.6543C473.628 65.2402 474.295 66.0703 474.783 67.1445C475.271 68.1862 475.499 69.472 475.467 71.002ZM469.314 69.7324C468.859 69.4395 468.403 69.4232 467.947 69.6836C467.524 69.9115 467.117 70.3184 466.727 70.9043C466.336 71.4577 465.994 72.125 465.701 72.9062C465.408 73.6875 465.164 74.5013 464.969 75.3477C464.773 76.1615 464.627 76.9427 464.529 77.6914C464.432 78.4401 464.415 79.0423 464.48 79.498C465.978 79.2051 467.166 78.5866 468.045 77.6426C468.924 76.6986 469.526 75.6895 469.852 74.6152C470.21 73.541 470.324 72.5319 470.193 71.5879C470.096 70.6439 469.803 70.0254 469.314 69.7324ZM495.145 71.002C495.079 72.6296 494.786 74.2734 494.266 75.9336C493.745 77.5612 492.98 79.0423 491.971 80.377C490.962 81.679 489.725 82.737 488.26 83.5508C486.827 84.332 485.184 84.6576 483.328 84.5273C483.361 85.5365 483.475 86.513 483.67 87.457C483.865 88.401 484.174 89.2148 484.598 89.8984C485.053 90.5495 485.656 91.0215 486.404 91.3145C487.153 91.5749 488.097 91.526 489.236 91.168C490.376 90.8424 491.466 90.3053 492.508 89.5566C493.549 88.8079 494.477 87.9453 495.291 86.9688C496.137 85.9922 496.837 84.9668 497.391 83.8926C497.977 82.7858 498.4 81.7116 498.66 80.6699C498.79 80.1165 499.1 79.7747 499.588 79.6445C500.076 79.5143 500.581 79.5306 501.102 79.6934C501.655 79.8561 502.111 80.1491 502.469 80.5723C502.859 80.9629 502.99 81.4186 502.859 81.9395C502.143 83.8275 501.427 85.5039 500.711 86.9688C500.027 88.4336 499.262 89.7357 498.416 90.875C497.57 91.9818 496.609 92.9258 495.535 93.707C494.493 94.4883 493.257 95.1393 491.824 95.6602C489.904 96.3438 488.13 96.6367 486.502 96.5391C484.874 96.474 483.458 96.0508 482.254 95.2695C481.049 94.4883 480.089 93.3815 479.373 91.9492C478.689 90.5169 478.299 88.7754 478.201 86.7246C478.136 85.748 478.104 84.5762 478.104 83.209C478.136 81.8092 478.234 80.3607 478.396 78.8633C478.559 77.3333 478.82 75.7871 479.178 74.2246C479.536 72.6621 480.024 71.2135 480.643 69.8789C481.261 68.5117 482.026 67.3236 482.938 66.3145C483.882 65.2728 485.021 64.5241 486.355 64.0684C487.462 63.6777 488.553 63.5312 489.627 63.6289C490.701 63.7266 491.645 64.0684 492.459 64.6543C493.305 65.2402 493.973 66.0703 494.461 67.1445C494.949 68.1862 495.177 69.472 495.145 71.002ZM488.992 69.7324C488.536 69.4395 488.081 69.4232 487.625 69.6836C487.202 69.9115 486.795 70.3184 486.404 70.9043C486.014 71.4577 485.672 72.125 485.379 72.9062C485.086 73.6875 484.842 74.5013 484.646 75.3477C484.451 76.1615 484.305 76.9427 484.207 77.6914C484.109 78.4401 484.093 79.0423 484.158 79.498C485.656 79.2051 486.844 78.5866 487.723 77.6426C488.602 76.6986 489.204 75.6895 489.529 74.6152C489.887 73.541 490.001 72.5319 489.871 71.5879C489.773 70.6439 489.48 70.0254 488.992 69.7324Z" fill="black"/>
</g>
<defs>
<clipPath id="clip0_1_96">
<rect width="545" height="153" fill="white"/>
</clipPath>
</defs>
</svg>
